<?xml version="1.0" encoding="utf-8"?>
<!-- Generator: Adobe Illustrator 22.0.1, SVG Export Plug-In . SVG Version: 6.00 Build 0)  -->
<svg version="1.1" id="Layer_1" xmlns="http://www.w3.org/2000/svg" xmlns:xlink="http://www.w3.org/1999/xlink" x="0px" y="0px"
	 viewBox="0 0 118 32" style="enable-background:new 0 0 118 32;" xml:space="preserve">
<style type="text/css">
	.st0{fill:#F87EFF;}
	.st1{fill:#FFFFFF;stroke:#E6E6E6;stroke-width:0.25;stroke-miterlimit:10;}
</style>
<path class="st0" d="M109.9,30.5H63.3c-1.2,0-2.2-1-2.2-2.2V3.7c0-1.2,1-2.2,2.2-2.2h46.7c1.2,0,2.2,1,2.2,2.2v24.7
	C112.1,29.5,111.1,30.5,109.9,30.5z"/>
<g>
	<path d="M70.1,25.1c-0.9,0-1.7-0.2-2.5-0.5c-0.8-0.4-1.4-0.8-2-1.5c-0.5-0.6-1-1.3-1.3-2.2c-0.3-0.8-0.5-1.7-0.5-2.6v0
		c0-0.9,0.2-1.8,0.5-2.7c0.3-0.8,0.7-1.6,1.3-2.2c0.5-0.6,1.2-1.1,2-1.5c0.8-0.4,1.6-0.5,2.5-0.5c1.1,0,2,0.2,2.8,0.6
		c0.7,0.4,1.4,0.9,1.9,1.6l-2.1,2.5c-0.4-0.4-0.8-0.8-1.2-1.1c-0.4-0.3-0.9-0.4-1.5-0.4c-0.4,0-0.8,0.1-1.2,0.3
		c-0.3,0.2-0.6,0.4-0.9,0.8c-0.3,0.3-0.5,0.7-0.6,1.1c-0.1,0.4-0.2,0.9-0.2,1.4v0c0,0.5,0.1,1,0.2,1.4c0.1,0.4,0.3,0.8,0.6,1.2
		c0.3,0.3,0.6,0.6,1,0.8c0.4,0.2,0.8,0.3,1.2,0.3c0.6,0,1-0.1,1.5-0.4c0.4-0.3,0.8-0.6,1.2-1l2,2.2c-0.6,0.7-1.2,1.3-2,1.7
		C72.2,24.9,71.2,25.1,70.1,25.1z"/>
	<path d="M82.9,25.1c-0.9,0-1.8-0.2-2.5-0.5c-0.8-0.4-1.5-0.8-2-1.5c-0.6-0.6-1-1.3-1.3-2.2s-0.5-1.7-0.5-2.7v0c0-1,0.2-1.8,0.5-2.7
		s0.8-1.6,1.3-2.2c0.6-0.6,1.3-1.1,2-1.5c0.8-0.4,1.6-0.5,2.6-0.5c0.9,0,1.8,0.2,2.5,0.5c0.8,0.4,1.5,0.8,2,1.5
		c0.6,0.6,1,1.3,1.3,2.2c0.3,0.8,0.5,1.7,0.5,2.7v0c0,1-0.2,1.8-0.5,2.7c-0.3,0.8-0.8,1.6-1.3,2.2c-0.6,0.6-1.3,1.1-2,1.5
		C84.7,24.9,83.8,25.1,82.9,25.1z M82.9,21.9c0.5,0,0.9-0.1,1.3-0.3c0.4-0.2,0.7-0.4,1-0.8c0.3-0.3,0.5-0.7,0.6-1.1
		c0.1-0.4,0.2-0.9,0.2-1.4v0c0-0.5-0.1-1-0.2-1.4c-0.1-0.4-0.4-0.8-0.6-1.2c-0.3-0.3-0.6-0.6-1-0.8c-0.4-0.2-0.8-0.3-1.3-0.3
		c-0.5,0-0.9,0.1-1.3,0.3c-0.4,0.2-0.7,0.4-1,0.8c-0.3,0.3-0.5,0.7-0.6,1.1c-0.1,0.4-0.2,0.9-0.2,1.4v0c0,0.5,0.1,1,0.2,1.4
		c0.1,0.4,0.4,0.8,0.6,1.2c0.3,0.3,0.6,0.6,1,0.8C82.1,21.8,82.5,21.9,82.9,21.9z"/>
	<path d="M91.8,6.9h3.5v3.3h-3.5V6.9z M91.9,11.6h3.4v13.2h-3.4V11.6z"/>
	<path d="M98.5,11.6h3.4v1.9c0.2-0.3,0.4-0.5,0.6-0.8c0.2-0.3,0.5-0.5,0.8-0.7c0.3-0.2,0.6-0.4,0.9-0.5c0.3-0.1,0.7-0.2,1.2-0.2
		c1.3,0,2.3,0.4,3,1.3c0.7,0.9,1.1,2.1,1.1,3.6v8.5H106v-7.3c0-0.9-0.2-1.5-0.5-2c-0.4-0.4-0.9-0.7-1.5-0.7c-0.6,0-1.2,0.2-1.5,0.7
		c-0.4,0.4-0.6,1.1-0.6,2v7.3h-3.4V11.6z"/>
</g>
<g>
	<path class="st1" d="M10.9,9.7h-5V5.8h13.7v3.9h-5v15.2h-3.6V9.7z"/>
	<path class="st1" d="M22.6,5.8h3.6v19h-3.6V5.8z"/>
	<path class="st1" d="M34.2,9.7h-5V5.8h13.7v3.9h-5v15.2h-3.6V9.7z"/>
	<path class="st1" d="M51.5,25.1c-1.3,0-2.5-0.2-3.7-0.7c-1.2-0.5-2.3-1.3-3.3-2.3l2.2-3c0.8,0.7,1.5,1.3,2.3,1.7
		c0.8,0.4,1.7,0.6,2.6,0.6c0.8,0,1.3-0.2,1.8-0.5c0.4-0.3,0.6-0.8,0.6-1.3v-0.1c0-0.3,0-0.5-0.1-0.7s-0.3-0.4-0.5-0.6
		s-0.6-0.4-1-0.5c-0.4-0.2-1-0.4-1.7-0.6c-0.8-0.2-1.6-0.5-2.3-0.8s-1.3-0.6-1.7-1.1c-0.5-0.4-0.8-1-1.1-1.6
		c-0.3-0.6-0.4-1.4-0.4-2.4v-0.1c0-0.9,0.1-1.7,0.4-2.3c0.3-0.7,0.7-1.3,1.2-1.8c0.5-0.5,1.1-0.9,1.8-1.2c0.7-0.3,1.5-0.4,2.3-0.4
		c1.2,0,2.3,0.2,3.3,0.6c1,0.4,1.9,1,2.8,1.8l-1.9,3.1c-0.7-0.6-1.5-1-2.2-1.4s-1.4-0.5-2.1-0.5s-1.2,0.2-1.6,0.5
		c-0.4,0.3-0.5,0.7-0.5,1.2V11c0,0.3,0.1,0.6,0.2,0.8c0.1,0.2,0.3,0.4,0.6,0.6c0.3,0.2,0.6,0.4,1.1,0.5c0.5,0.2,1.1,0.4,1.8,0.6
		c0.8,0.3,1.6,0.5,2.2,0.9c0.7,0.3,1.2,0.7,1.7,1.1s0.8,1,1,1.6c0.2,0.6,0.3,1.3,0.3,2.1v0.1c0,0.9-0.1,1.8-0.4,2.5
		s-0.7,1.3-1.2,1.8s-1.2,0.9-1.9,1.1C53.3,25,52.4,25.1,51.5,25.1z"/>
</g>
</svg>
